<?xml version="1.0" standalone="no"?><!DOCTYPE svg PUBLIC "-//W3C//DTD SVG 1.1//EN" "http://www.w3.org/Graphics/SVG/1.1/DTD/svg11.dtd"><svg t="1586695126056" class="icon" viewBox="0 0 1024 1024" version="1.1" xmlns="http://www.w3.org/2000/svg" p-id="1683" xmlns:xlink="http://www.w3.org/1999/xlink" width="128" height="128"><defs><style type="text/css"></style></defs><path d="M664.132267 0H110.933333v1024h802.133334V248.9344L664.132267 0z m10.001066 58.2656L854.801067 238.933333H674.133333V58.2656zM145.066667 989.866667V34.133333h494.933333v238.933334h238.933333v716.8h-733.866666z" fill="" p-id="1684"></path><path d="M588.8 631.466667a17.066667 17.066667 0 1 0 0-34.133334h-290.133333a17.066667 17.066667 0 1 0 0 34.133334h290.133333zM759.466667 512h-119.466667a17.066667 17.066667 0 1 0 0 34.133333h119.466667a17.066667 17.066667 0 1 0 0-34.133333zM366.933333 529.066667a17.066667 17.066667 0 0 0 17.066667 17.066666h170.666667a17.066667 17.066667 0 1 0 0-34.133333h-170.666667a17.066667 17.066667 0 0 0-17.066667 17.066667zM286.549333 516.949333c-3.072 3.2256-4.949333 7.662933-4.949333 12.117334a17.220267 17.220267 0 0 0 17.066667 17.066666c4.608 0 8.874667-1.877333 12.117333-4.949333 3.072-3.242667 4.949333-7.68 4.949333-12.117333 0-4.4544-1.877333-8.891733-4.949333-12.117334-6.314667-6.314667-18.090667-6.144-24.234667 0zM662.016 602.282667c-3.072 3.2256-4.949333 7.492267-4.949333 12.117333 0 4.608 1.706667 8.874667 4.949333 12.117333 3.242667 3.072 7.68 4.949333 12.117333 4.949334 4.437333 0 8.874667-1.877333 12.117334-4.949334a16.896 16.896 0 0 0 4.949333-12.117333c0-4.4544-1.877333-8.891733-4.949333-12.117333-6.485333-6.314667-17.749333-6.314667-24.234667 0zM747.349333 602.282667c-3.072 3.2256-4.949333 7.492267-4.949333 12.117333 0 4.608 1.706667 8.874667 4.949333 12.117333 3.242667 3.072 7.68 4.949333 12.117334 4.949334 4.437333 0 8.874667-1.877333 12.117333-5.12 3.242667-3.242667 4.949333-7.509333 4.949333-11.946667 0-4.4544-1.877333-8.891733-4.949333-12.117333-6.485333-6.314667-17.749333-6.314667-24.234667 0zM392.96 685.499733c-37.376 19.456-49.954133 56.6784-54.545067 95.266134l-21.1968-17.749334c-16.725333-14.011733-40.994133 10.001067-24.132266 24.149334l47.889066 40.123733c11.229867 9.403733 28.603733 3.464533 29.1328-12.066133 1.245867-36.9664 2.986667-80.930133 40.072534-100.232534 19.5072-10.154667 2.2528-39.6288-17.220267-29.4912zM622.165333 752.776533c-24.8832-1.570133-61.303467 36.778667-80.4864 2.6112-4.437333-7.918933-15.581867-10.888533-23.3472-6.126933-24.1664 14.830933-55.7568 36.164267-81.169066 8.533333-14.8992-16.196267-38.997333 7.9872-24.132267 24.132267 31.914667 34.696533 72.977067 24.149333 109.2096 4.488533 8.157867 9.130667 18.2784 15.803733 31.351467 18.449067 13.5168 2.730667 68.693333-19.473067 71.68-15.377067 12.834133 17.5616 42.461867 0.546133 29.474133-17.220266-8.823467-12.066133-16.9472-18.500267-32.580267-19.490134zM489.233067 408.968533l11.502933-8.174933-5.870933-12.834133a53.76 53.76 0 0 0-24.746667-26.146134l-36.181333-18.466133c16.64-10.632533 28.603733-26.641067 35.754666-47.803733a39.5264 39.5264 0 0 0 19.029334-33.860267v-11.383467c0-11.554133-5.0176-22.3232-13.550934-29.781333-6.0928-32.392533-28.0576-67.4304-94.549333-67.4304-2.6112 0-5.1712 0.1024-7.697067 0.3072-8.925867 0.733867-21.930667 0-33.058133-7.4752-5.1712-3.4816-7.816533-6.178133-9.1136-7.8336a19.2512 19.2512 0 0 0-22.596267-5.973333 19.2 19.2 0 0 0-11.844266 20.1216c0.512 4.386133 1.245867 9.506133 2.3552 15.086933 1.4336 7.168 1.518933 9.233067 1.467733 9.7792-0.136533 0.597333-1.1264 2.7136-1.911467 4.420267-1.194667 2.56-2.6624 5.717333-4.386133 9.9328a130.2528 130.2528 0 0 0-8.0384 29.3376 39.645867 39.645867 0 0 0-13.277867 29.525333v11.383467c0 14.097067 7.355733 26.743467 19.029334 33.860266 7.1168 21.077333 19.029333 37.051733 35.549866 47.6672l-37.614933 18.551467a53.7088 53.7088 0 0 0-23.586133 26.299733l-5.461334 12.6464 11.195734 8.004267A186.624 186.624 0 0 0 380.6208 443.733333c39.082667 0 76.629333-12.014933 108.612267-34.7648z m-181.76-18.0224l41.728-20.548266c8.8576-4.386133 14.370133-13.243733 14.370133-23.125334v-24.2688l-10.308267-4.4544c-15.5648-6.690133-25.7024-19.643733-31.044266-39.611733l-2.440534-9.096533-8.994133-2.798934a5.7344 5.7344 0 0 1-4.096-5.341866v-11.383467c0-2.423467 1.621333-4.130133 3.140267-4.932267l8.004266-4.266666 0.938667-9.028267a100.181333 100.181333 0 0 1 6.673067-27.682133c1.467733-3.601067 2.730667-6.280533 3.754666-8.482134 2.645333-5.666133 4.2496-9.864533 4.829867-14.592 12.458667 5.205333 26.606933 7.253333 41.642667 6.109867 1.621333-0.136533 3.2768-0.2048 4.9664-0.2048 49.8176 0 59.204267 22.766933 61.815466 45.021867l1.041067 8.925866 7.953067 4.181334a5.700267 5.700267 0 0 1 3.157333 4.949333v11.383467a5.751467 5.751467 0 0 1-4.096 5.341866l-8.994133 2.798934-2.440534 9.096533c-5.341867 19.968-15.496533 32.938667-31.044266 39.611733l-10.308267 4.4544v24.3712c0 9.728 5.376 18.5344 14.08 22.9888l41.216 21.0432c-44.731733 24.046933-100.9664 23.893333-145.544533-0.4608z" fill="" p-id="1685"></path></svg>